<svg xmlns="http://www.w3.org/2000/svg" viewBox="0 0 128 128" role="img" aria-label="Snake Quiz icon">
  <defs>
    <linearGradient id="bg" x1="0" x2="0" y1="0" y2="1">
      <stop offset="0%" stop-color="#0b1726" />
      <stop offset="100%" stop-color="#0e2c44" />
    </linearGradient>
    <linearGradient id="snake" x1="0" x2="1" y1="0" y2="1">
      <stop offset="0%" stop-color="#0ecb81" />
      <stop offset="100%" stop-color="#0fb774" />
    </linearGradient>
    <filter id="glow" x="-20%" y="-20%" width="140%" height="140%">
      <feGaussianBlur stdDeviation="1.6" result="blur" />
      <feMerge>
        <feMergeNode in="blur" />
        <feMergeNode in="SourceGraphic" />
      </feMerge>
    </filter>
  </defs>
  <rect width="128" height="128" rx="18" fill="url(#bg)" />
  <path
    d="M88 30C72 18 42 24 42 48c0 16 14 18 26 22c18 6 18 28-4 32c-14 2-24-6-24-16"
    fill="none"
    stroke="url(#snake)"
    stroke-width="12"
    stroke-linecap="round"
    stroke-linejoin="round"
    filter="url(#glow)"
  />
  <circle cx="88" cy="30" r="8" fill="#0ecb81" />
  <circle cx="90.5" cy="28" r="2.5" fill="#0b1726" />
  <circle cx="46" cy="106" r="8" fill="url(#snake)" />
  <rect x="44" y="88" width="12" height="8" rx="3" fill="#fff" opacity="0.8" />
  <rect x="72" y="54" width="12" height="8" rx="3" fill="#fff" opacity="0.8" />
</svg>
